<?xml version="1.0" standalone="no"?>
<!DOCTYPE svg PUBLIC "-//W3C//DTD SVG 20010904//EN"
 "http://www.w3.org/TR/2001/REC-SVG-20010904/DTD/svg10.dtd">
<svg version="1.0" xmlns="http://www.w3.org/2000/svg"
 width="247.000000pt" height="242.000000pt" viewBox="0 0 247.000000 242.000000"
 preserveAspectRatio="xMidYMid meet">

<g transform="translate(0.000000,242.000000) scale(0.100000,-0.100000)"
fill="#000000" stroke="none">
<path d="M1105 2259 c-361 -40 -662 -253 -827 -584 -44 -87 -77 -188 -81 -240
l-2 -40 146 -3 146 -3 12 43 c32 109 136 259 238 343 65 53 174 117 223 129
14 4 -4 -7 -39 -24 -167 -79 -314 -227 -375 -380 -37 -93 -37 -93 -25 -100 18
-12 446 -13 453 -1 7 10 41 172 51 241 13 85 21 71 46 -71 29 -167 26 -164 89
-88 29 35 56 65 60 67 5 2 30 -25 56 -60 26 -35 49 -65 51 -67 10 -13 14 4 44
192 6 42 15 77 19 77 7 0 61 -232 60 -262 0 -25 30 -37 78 -31 52 7 56 30 10
58 -55 32 -78 64 -78 107 l0 39 25 -19 c39 -31 148 -46 226 -32 35 6 75 18 91
26 34 18 43 5 24 -39 -15 -38 -52 -68 -108 -88 -36 -12 -53 -32 -43 -48 5 -10
176 -14 210 -5 16 4 25 13 25 26 0 33 -66 165 -113 225 -140 180 -305 272
-527 293 l-75 7 66 2 c83 1 218 -36 308 -85 178 -98 292 -229 358 -409 l21
-60 146 -2 c171 -3 168 -5 142 89 -52 187 -142 343 -274 474 -227 228 -540
338 -857 303z m-2 -111 c-6 -8 -4 -36 5 -75 11 -50 18 -63 33 -63 17 0 19 8
19 69 0 46 -4 71 -12 74 -7 3 17 6 53 6 53 1 68 -2 73 -15 9 -24 -1 -29 -20
-10 -25 26 -58 17 -62 -16 -3 -24 0 -28 20 -28 13 0 29 5 36 12 9 9 12 4 11
-22 0 -19 -3 -29 -6 -22 -2 6 -18 12 -34 12 -26 0 -29 -4 -29 -30 0 -28 3 -30
35 -30 22 0 37 6 44 17 12 23 22 13 14 -15 -5 -20 -11 -22 -87 -22 -44 0 -92
-3 -106 -7 -21 -5 -23 -4 -13 8 13 16 7 85 -7 94 -4 3 -13 -23 -20 -58 l-12
-62 -19 23 c-10 13 -28 36 -39 50 l-21 27 6 -40 c3 -22 14 -46 23 -52 14 -12
14 -13 -4 -13 -10 0 -36 -9 -57 -20 -41 -22 -51 -25 -43 -11 7 11 -20 77 -34
86 -8 5 -9 -12 -4 -54 3 -34 3 -61 -1 -61 -4 0 -24 13 -44 28 -57 45 -61 45
-38 2 12 -22 29 -40 37 -40 11 -1 10 -4 -4 -15 -23 -17 -40 -20 -31 -5 7 11
-50 120 -68 131 -5 4 0 10 12 14 22 7 32 2 95 -47 l29 -22 -5 66 c-5 63 -4 66
19 77 22 10 25 9 19 -5 -8 -20 50 -124 70 -124 17 0 18 34 3 96 -7 26 -17 44
-26 44 -8 0 -11 5 -8 10 15 24 53 9 86 -35 19 -24 37 -45 41 -45 4 0 10 25 14
56 5 44 11 57 28 64 31 13 40 12 29 -2z m318 -10 c31 -9 39 -16 39 -35 0 -28
-16 -31 -23 -3 -7 27 -53 37 -77 15 -28 -25 -35 -71 -16 -100 22 -34 63 -34
72 -1 3 14 3 30 -1 35 -4 7 4 11 19 11 14 0 28 -4 31 -10 3 -5 2 -10 -3 -10
-5 0 -13 -15 -18 -32 -8 -28 -15 -33 -45 -36 -50 -4 -99 37 -99 82 0 37 23 74
54 86 28 11 23 12 67 -2z m169 -57 c14 -10 26 -26 28 -35 5 -22 -16 -46 -39
-46 -17 0 -17 -3 -4 -47 8 -27 15 -49 15 -51 0 -1 -8 2 -19 7 -10 6 -24 31
-30 57 -13 50 -32 50 -34 0 -1 -14 -3 -26 -4 -26 -1 0 -14 5 -29 10 -23 9 -25
12 -12 23 20 16 60 116 51 130 -9 15 48 -1 77 -22z m122 -82 c-11 -4 -33 -29
-48 -55 l-28 -47 24 -19 c30 -24 38 -21 78 31 22 30 31 50 26 63 -6 19 -5 19
22 1 19 -12 23 -19 13 -21 -7 -1 -29 -25 -47 -52 -27 -43 -37 -50 -64 -50 -70
0 -87 56 -39 129 17 25 27 51 23 59 -4 11 4 9 28 -8 31 -22 32 -24 12 -31z
m-1072 -34 c0 -8 7 -15 16 -15 8 0 29 -13 45 -29 40 -41 40 -90 -1 -124 -16
-14 -30 -33 -30 -41 0 -9 -4 -16 -10 -16 -5 0 -10 7 -10 15 0 9 -11 20 -24 25
-32 12 -66 57 -66 88 0 15 13 37 36 58 19 19 32 38 29 44 -3 5 -1 10 4 10 6 0
11 -7 11 -15z m527 -21 c-3 -3 -12 -4 -19 -1 -8 3 -5 6 6 6 11 1 17 -2 13 -5z
m-74 -11 c-7 -2 -19 -2 -25 0 -7 3 -2 5 12 5 14 0 19 -2 13 -5z m786 -38 c36
-42 39 -68 10 -89 -22 -15 -43 -12 -70 11 -13 11 -18 10 -33 -6 -10 -11 -15
-25 -11 -30 12 -21 -12 -11 -35 14 -16 17 -19 25 -10 25 18 0 100 80 100 97 0
22 17 14 49 -22z m-1320 -153 c19 -29 31 -55 29 -57 -6 -6 -178 29 -178 36 0
3 9 14 20 24 11 10 20 13 20 7 0 -10 59 -32 89 -32 16 0 -9 44 -41 73 -17 14
-18 20 -8 32 11 13 14 12 25 -7 6 -13 26 -47 44 -76z m1427 27 c20 -39 18 -66
-6 -79 -22 -12 -47 -3 -70 25 -15 18 -37 5 -49 -29 -7 -17 -10 -16 -30 13 -16
22 -19 31 -9 29 17 -4 118 67 118 83 0 17 29 -10 46 -42z m-1560 -120 c3 -5
-3 -9 -13 -9 -22 0 -43 -18 -43 -37 0 -19 28 -16 67 8 28 18 39 20 59 10 48
-21 13 -122 -37 -106 -21 7 -21 8 9 21 21 9 32 20 32 34 0 24 -20 26 -61 4
-64 -32 -107 2 -75 60 13 25 23 32 37 29 11 -3 22 -9 25 -14z m1637 -11 c-6
-7 -31 -39 -56 -71 -26 -32 -47 -63 -47 -70 -1 -12 -29 32 -30 46 0 4 6 7 14
7 24 0 28 17 11 49 -15 29 -45 34 -45 7 0 -6 -7 -2 -15 8 -8 11 -15 22 -15 25
0 3 44 7 97 9 76 2 94 0 86 -10z"/>
<path d="M1540 2054 c-13 -34 -13 -34 14 -34 28 0 42 26 25 46 -17 21 -28 17
-39 -12z"/>
<path d="M602 1912 c-24 -24 -20 -49 11 -83 l22 -24 3 40 c2 23 -1 51 -6 65
l-9 23 -21 -21z"/>
<path d="M650 1899 c0 -84 26 -124 50 -80 12 24 1 58 -29 85 -21 19 -21 19
-21 -5z"/>
<path d="M1835 1860 c-16 -18 -17 -23 -5 -30 18 -12 22 -12 38 -1 16 9 13 42
-4 48 -6 2 -19 -6 -29 -17z"/>
<path d="M1932 1754 c-18 -13 -21 -19 -11 -30 23 -28 66 -4 53 30 -8 20 -14
20 -42 0z"/>
<path d="M1970 1616 c0 -24 16 -27 35 -6 18 19 17 20 -8 20 -17 0 -27 -5 -27
-14z"/>
<path d="M1390 1610 c-1 -3 -9 -54 -19 -114 -9 -62 -21 -111 -28 -113 -6 -2
-31 22 -55 54 -46 62 -69 84 -80 77 -4 -3 -31 -36 -60 -75 l-52 -71 -12 35
c-7 20 -18 70 -25 111 -7 42 -16 73 -20 69 -4 -5 -14 -51 -24 -103 -9 -52 -22
-98 -28 -102 -7 -4 -113 -8 -237 -8 -124 0 -231 -4 -238 -9 -18 -11 -35 -143
-28 -219 9 -99 25 -142 53 -142 12 0 23 -4 23 -9 0 -16 99 -51 145 -51 51 0
96 19 137 57 l26 25 34 -25 c18 -14 45 -30 59 -36 24 -9 30 -5 82 59 30 37 71
80 92 95 34 26 43 28 138 30 58 1 112 7 125 14 46 24 162 166 162 198 0 9 -16
13 -55 13 -36 0 -57 5 -61 13 -2 7 -15 62 -28 122 -14 61 -25 108 -26 105z"/>
<path d="M1480 1538 c0 -21 20 -43 68 -72 36 -22 42 -31 42 -59 0 -50 -42
-124 -112 -199 -65 -69 -103 -88 -176 -88 -21 0 -31 -4 -27 -11 12 -19 -4 -54
-32 -66 -15 -7 -46 -13 -70 -13 -47 0 -53 -11 -27 -48 20 -30 48 -28 79 5 24
26 25 27 25 6 0 -29 47 -41 67 -16 13 17 14 16 9 -9 -11 -51 -25 -76 -53 -96
-31 -22 -108 -61 -167 -86 l-38 -16 3 79 c3 57 9 84 22 98 18 21 25 117 7 111
-5 -1 -27 -27 -50 -57 -44 -60 -48 -85 -24 -152 9 -28 13 -59 10 -84 -5 -29
-4 -36 4 -25 8 11 9 8 4 -12 -8 -37 6 -36 61 6 32 25 67 39 120 51 41 9 90 27
108 39 63 41 107 171 84 246 -8 24 -7 24 7 6 9 -11 16 -39 16 -64 l0 -44 43
25 c55 32 132 127 154 191 12 36 18 83 18 155 l0 103 51 19 c27 10 63 33 80
50 l29 30 -55 -6 c-30 -4 -69 -11 -86 -16 -28 -9 -123 6 -178 27 -10 4 -16 1
-16 -8z"/>
<path d="M1680 1358 c0 -7 -5 -51 -10 -97 -9 -77 -14 -92 -60 -164 -28 -44
-49 -86 -46 -94 3 -7 27 -27 53 -44 43 -27 54 -30 110 -27 51 3 71 10 108 36
25 17 45 27 45 22 0 -6 7 -10 15 -10 26 0 40 78 40 227 0 78 -4 145 -8 150 -5
4 -62 10 -128 11 -94 3 -119 1 -119 -10z"/>
<path d="M1153 730 c-61 -55 -150 -64 -232 -24 -52 26 -54 26 -82 10 -16 -9
-52 -20 -81 -23 l-52 -6 49 -43 c58 -51 186 -118 270 -140 198 -52 421 -15
593 100 71 47 133 105 99 93 -58 -21 -92 -19 -150 12 l-58 31 -53 -30 c-30
-17 -67 -30 -87 -30 -37 0 -106 28 -146 60 -32 25 -32 25 -70 -10z"/>
<path d="M1711 650 c-60 -55 -195 -129 -281 -154 -145 -44 -326 -40 -458 10
-81 30 -191 94 -243 141 -27 25 -44 33 -58 28 -11 -3 -61 -50 -111 -103 l-91
-97 43 -38 c72 -63 215 -154 295 -187 97 -40 196 -65 316 -80 217 -26 488 42
673 168 79 53 184 141 184 154 0 9 -195 200 -209 205 -3 1 -30 -20 -60 -47z
m-84 -152 c-6 -17 48 -125 65 -130 8 -3 -1 -12 -19 -21 -39 -20 -45 -21 -41
-4 5 21 -43 116 -61 120 -11 2 -6 10 19 25 41 26 43 26 37 10z m-784 -13 c9
-8 18 -33 22 -55 4 -22 10 -42 15 -45 8 -5 25 42 21 63 -3 16 11 15 35 -3 14
-11 16 -15 4 -15 -9 0 -27 -28 -44 -65 -29 -64 -45 -81 -47 -47 0 9 -8 42 -18
72 l-18 55 -17 -39 c-9 -22 -14 -46 -12 -53 7 -17 -6 -16 -30 2 -11 9 -14 14
-6 15 15 0 65 107 57 121 -10 15 22 10 38 -6z m674 -48 c-3 -7 1 -37 9 -66 16
-61 7 -87 -31 -97 -48 -12 -73 3 -85 49 -7 23 -18 52 -26 64 -12 20 -12 22 6
27 11 3 30 9 42 12 19 6 21 5 10 -8 -9 -12 -9 -25 4 -67 16 -56 37 -73 61 -48
13 13 14 22 2 67 -7 29 -20 55 -27 58 -11 4 -11 6 0 13 20 13 41 11 35 -4z
m-439 -27 c55 -13 55 -13 43 -45 -8 -19 -8 -19 -15 3 -12 36 -30 20 -43 -39
-9 -40 -9 -57 -1 -67 10 -11 5 -12 -28 -6 -45 8 -53 12 -37 22 12 7 32 80 33
116 0 17 -1 17 -25 2 -25 -17 -30 -11 -19 18 4 9 14 15 23 12 9 -2 40 -10 69
-16z m179 -52 l43 -42 0 30 c0 16 -5 35 -12 42 -9 9 -6 12 17 12 20 0 26 -3
18 -11 -6 -6 -8 -37 -5 -80 3 -44 1 -69 -6 -69 -5 0 -31 24 -56 53 l-46 52 0
-41 c0 -22 5 -45 12 -52 9 -9 4 -12 -22 -11 -19 0 -29 3 -22 6 17 7 17 133 0
133 -15 0 11 20 27 20 5 0 29 -19 52 -42z"/>
</g>
</svg>
